<?xml version="1.0" encoding="UTF-8"?>
<!-- Generator: visioncortex VTracer 0.6.3 -->
<svg version="1.1" xmlns="http://www.w3.org/2000/svg" width="1280" height="1237">
<path d="M0 0 C2.23 1.84 3.19 3.04 4.12 5.75 C4.12 6.74 4.12 7.73 4.12 8.75 C5.28 8.96 6.43 9.16 7.62 9.38 C14.23 11.03 18.76 15.54 23.75 19.94 C25.98 21.9 27.66 23.02 30.38 24.38 C33.12 25.75 33.12 25.75 34.5 27.69 C36.31 29.98 37.43 30.43 40.06 31.56 C43.27 33.03 44.68 34.15 46.25 37.31 C48.46 41.37 50.07 41.81 54.12 43.75 C58.12 48.91 58.12 48.91 58.12 51.75 C59.05 51.98 59.98 52.2 60.94 52.44 C64.78 54.02 65.39 55.04 67.12 58.75 C67.5 61.8 67.5 61.8 67.5 65.28 C67.5 65.92 67.51 66.57 67.51 67.23 C67.52 69.4 67.51 71.56 67.5 73.72 C67.5 75.29 67.51 76.86 67.51 78.42 C67.52 82.73 67.51 87.03 67.5 91.34 C67.49 95.98 67.5 100.63 67.51 105.27 C67.52 114.37 67.51 123.46 67.5 132.56 C67.49 143.15 67.49 153.75 67.49 164.34 C67.49 183.24 67.48 202.14 67.46 221.04 C67.44 239.38 67.44 257.73 67.44 276.07 C67.45 296.03 67.45 316 67.44 335.97 C67.43 338.1 67.43 340.23 67.43 342.36 C67.43 343.93 67.43 343.93 67.43 345.53 C67.43 352.92 67.43 360.3 67.43 367.68 C67.43 376.68 67.43 385.68 67.41 394.68 C67.4 399.28 67.4 403.87 67.4 408.46 C67.41 412.67 67.4 416.87 67.39 421.08 C67.39 422.6 67.39 424.12 67.39 425.64 C67.44 443.98 67.44 443.98 62.62 449.75 C60.12 451.75 60.12 451.75 58.12 451.75 C57.88 452.64 57.63 453.52 57.38 454.44 C55.77 458.7 54.25 461.73 50 463.77 C48.41 464.43 46.82 465.07 45.23 465.71 C42.39 467.11 41.07 469.29 39.12 471.75 C33.35 473.95 27.95 474.04 21.81 474.01 C20.28 474.02 20.28 474.02 18.71 474.02 C15.28 474.03 11.86 474.03 8.43 474.02 C5.97 474.03 3.51 474.03 1.05 474.04 C-4.93 474.05 -10.91 474.05 -16.89 474.05 C-21.76 474.05 -26.62 474.05 -31.49 474.06 C-32.18 474.06 -32.87 474.06 -33.59 474.06 C-34.99 474.06 -36.4 474.06 -37.81 474.06 C-51.01 474.07 -64.21 474.07 -77.4 474.06 C-89.47 474.06 -101.53 474.07 -113.59 474.09 C-125.99 474.11 -138.39 474.12 -150.79 474.11 C-157.74 474.11 -164.7 474.11 -171.65 474.13 C-178.19 474.14 -184.74 474.14 -191.28 474.13 C-193.68 474.12 -196.08 474.13 -198.48 474.13 C-201.75 474.14 -205.03 474.14 -208.31 474.12 C-209.26 474.13 -210.2 474.14 -211.18 474.15 C-218.06 474.09 -224.83 473.31 -230.25 468.75 C-233.1 466.58 -234.98 466.12 -238.44 465.31 C-242 464.42 -243.63 463.96 -246.44 461.5 C-247.88 458.75 -247.88 458.75 -248.81 455.06 C-249.16 453.97 -249.51 452.88 -249.88 451.75 C-252.3 450.58 -252.3 450.58 -254.88 449.75 C-259.04 444.39 -259 438.38 -259.01 431.82 C-259.02 431.14 -259.02 430.47 -259.02 429.78 C-259.03 427.54 -259.03 425.29 -259.03 423.05 C-259.04 421.44 -259.04 419.82 -259.05 418.21 C-259.06 414.74 -259.07 411.27 -259.07 407.8 C-259.08 402.31 -259.11 396.83 -259.13 391.34 C-259.19 375.73 -259.24 360.13 -259.28 344.52 C-259.29 335.9 -259.32 327.27 -259.36 318.65 C-259.39 314.09 -259.4 309.53 -259.4 304.97 C-259.41 300.68 -259.42 296.39 -259.45 292.1 C-259.45 290.53 -259.46 288.96 -259.45 287.39 C-259.44 277.9 -259.87 270.56 -264.95 262.32 C-267.72 257.69 -268.26 252.6 -269.03 247.33 C-270.2 240.99 -272.79 238.5 -277.88 234.75 C-278.51 234.03 -279.15 233.31 -279.81 232.56 C-281.89 230.74 -283.12 230.23 -285.69 229.38 C-289.63 228.05 -292.05 226.11 -294.94 223.15 C-304.33 216.34 -322.27 218.01 -333.13 219.45 C-339.2 220.45 -343.99 221.6 -348.26 226.27 C-350.36 228.2 -352.45 228.87 -355.12 229.81 C-359.04 231.2 -359.04 231.2 -361.75 234.31 C-362.12 235.12 -362.49 235.92 -362.88 236.75 C-366.29 239.75 -366.29 239.75 -368.88 239.75 C-369.12 241.04 -369.36 242.33 -369.61 243.66 C-369.95 245.38 -370.29 247.1 -370.62 248.81 C-370.78 249.66 -370.94 250.51 -371.1 251.38 C-372.22 256.97 -373.93 260.89 -376.88 265.75 C-380.71 273.45 -380.3 281.27 -380.28 289.68 C-380.28 291.29 -380.29 292.91 -380.3 294.52 C-380.31 297.98 -380.32 301.45 -380.32 304.91 C-380.31 310.39 -380.33 315.87 -380.36 321.35 C-380.4 331.99 -380.42 342.64 -380.43 353.28 C-380.45 366.83 -380.49 380.38 -380.54 393.93 C-380.56 399.38 -380.57 404.82 -380.57 410.26 C-380.57 413.65 -380.58 417.04 -380.6 420.44 C-380.6 422 -380.6 423.57 -380.6 425.14 C-380.57 443.98 -380.57 443.98 -385.38 449.75 C-387.88 451.75 -387.88 451.75 -389.88 451.75 C-390.12 452.64 -390.37 453.52 -390.62 454.44 C-392.23 458.7 -393.75 461.73 -398 463.77 C-399.59 464.43 -401.18 465.07 -402.77 465.71 C-405.61 467.11 -406.93 469.29 -408.88 471.75 C-414.65 473.95 -420.05 474.04 -426.19 474.01 C-427.72 474.02 -427.72 474.02 -429.29 474.02 C-432.72 474.03 -436.14 474.03 -439.57 474.02 C-442.03 474.03 -444.49 474.03 -446.95 474.04 C-452.93 474.05 -458.91 474.05 -464.89 474.05 C-469.76 474.05 -474.62 474.05 -479.49 474.06 C-480.18 474.06 -480.87 474.06 -481.59 474.06 C-482.99 474.06 -484.4 474.06 -485.81 474.06 C-499.01 474.07 -512.21 474.07 -525.4 474.06 C-537.47 474.06 -549.53 474.07 -561.59 474.09 C-573.99 474.11 -586.39 474.12 -598.79 474.11 C-605.74 474.11 -612.7 474.11 -619.65 474.13 C-626.19 474.14 -632.74 474.14 -639.28 474.13 C-641.68 474.12 -644.08 474.13 -646.48 474.13 C-649.75 474.14 -653.03 474.14 -656.31 474.12 C-657.26 474.13 -658.2 474.14 -659.18 474.15 C-666.06 474.09 -672.83 473.31 -678.25 468.75 C-681.1 466.58 -682.98 466.12 -686.44 465.31 C-690 464.42 -691.63 463.96 -694.44 461.5 C-695.88 458.75 -695.88 458.75 -696.81 455.06 C-697.16 453.97 -697.51 452.88 -697.88 451.75 C-700.3 450.58 -700.3 450.58 -702.88 449.75 C-706.99 444.46 -707 438.55 -707.01 432.08 C-707.01 431.1 -707.01 431.1 -707.01 430.11 C-707.02 427.94 -707.02 425.77 -707.02 423.6 C-707.02 422.02 -707.02 420.45 -707.02 418.88 C-707.03 414.56 -707.03 410.24 -707.04 405.92 C-707.04 401.26 -707.04 396.59 -707.05 391.93 C-707.06 381.75 -707.07 371.56 -707.08 361.37 C-707.08 355.01 -707.08 348.65 -707.09 342.29 C-707.1 324.69 -707.11 307.09 -707.11 289.49 C-707.11 288.36 -707.11 287.24 -707.11 286.07 C-707.11 284.95 -707.11 283.82 -707.11 282.65 C-707.11 280.37 -707.11 278.08 -707.12 275.79 C-707.12 274.66 -707.12 273.52 -707.12 272.35 C-707.12 253.95 -707.14 235.55 -707.16 217.14 C-707.18 198.25 -707.2 179.37 -707.2 160.48 C-707.2 149.87 -707.2 139.26 -707.22 128.65 C-707.24 119.63 -707.24 110.6 -707.24 101.57 C-707.23 96.96 -707.23 92.35 -707.25 87.75 C-707.26 83.53 -707.26 79.31 -707.25 75.1 C-707.24 73.57 -707.25 72.04 -707.26 70.52 C-707.27 68.44 -707.26 66.37 -707.25 64.3 C-707.25 63.15 -707.25 61.99 -707.25 60.81 C-706.41 53.98 -701.07 48.88 -695.88 44.75 C-693.28 43.58 -690.67 42.66 -687.98 41.74 C-684.84 40.27 -684.31 37.81 -682.88 34.75 C-680.68 33.33 -678.4 32.2 -676.06 31.03 C-673.51 29.54 -672.11 27.65 -670.38 25.28 C-668.33 23.19 -666.05 22.13 -663.44 20.81 C-658.86 18.5 -656.38 16.26 -653.35 12.21 C-651.51 10.38 -650.15 10.1 -647.62 9.62 C-646.39 9.34 -645.15 9.05 -643.88 8.75 C-642.55 6.35 -642.55 6.35 -641.88 3.75 C-638.84 0.86 -636.58 0.3 -632.44 0.25 C-631.51 0.22 -630.58 0.19 -629.63 0.16 C-625.76 0.99 -624.37 2.72 -621.88 5.75 C-621.25 8.78 -621.25 8.78 -621.26 12.24 C-621.25 13.56 -621.24 14.88 -621.23 16.24 C-621.24 17.7 -621.26 19.16 -621.27 20.63 C-621.27 22.18 -621.27 23.74 -621.26 25.29 C-621.25 29.57 -621.27 33.84 -621.29 38.12 C-621.32 42.73 -621.31 47.34 -621.31 51.95 C-621.3 59.94 -621.32 67.92 -621.35 75.91 C-621.39 87.46 -621.4 99.01 -621.41 110.56 C-621.42 129.3 -621.45 148.03 -621.5 166.77 C-621.54 184.97 -621.58 203.18 -621.6 221.38 C-621.6 222.5 -621.6 223.62 -621.6 224.78 C-621.61 230.41 -621.62 236.03 -621.62 241.66 C-621.68 288.36 -621.76 335.05 -621.88 381.75 C-617.33 383.19 -613.5 384 -608.69 384 C-607.5 384.01 -606.3 384.02 -605.07 384.02 C-603.78 384.02 -602.49 384.01 -601.16 384.01 C-599.77 384.01 -598.38 384.02 -596.99 384.02 C-593.23 384.03 -589.48 384.03 -585.72 384.02 C-581.78 384.01 -577.84 384.02 -573.9 384.02 C-567.29 384.03 -560.68 384.02 -554.06 384.01 C-546.43 384 -538.79 384 -531.15 384.01 C-524.59 384.02 -518.02 384.02 -511.45 384.02 C-507.53 384.02 -503.62 384.02 -499.7 384.02 C-496.02 384.03 -492.33 384.02 -488.65 384.01 C-486.66 384.01 -484.67 384.01 -482.68 384.02 C-476.7 383.99 -471.5 383.85 -465.88 381.75 C-465.88 380.54 -465.88 379.32 -465.89 378.07 C-465.93 366.62 -465.96 355.18 -465.98 343.73 C-465.99 337.84 -466 331.96 -466.03 326.07 C-466.05 320.39 -466.06 314.71 -466.06 309.03 C-466.07 306.87 -466.08 304.7 -466.09 302.53 C-466.1 299.5 -466.1 296.46 -466.1 293.43 C-466.11 292.53 -466.12 291.64 -466.12 290.72 C-466.11 285.96 -465.62 282.24 -463.88 277.75 C-463.61 275.49 -463.43 273.22 -463.31 270.95 C-463.24 269.65 -463.17 268.35 -463.09 267.01 C-463.06 266.33 -463.02 265.66 -462.98 264.96 C-462.8 261.47 -462.58 257.97 -462.37 254.48 C-462.33 253.8 -462.28 253.12 -462.24 252.42 C-461.92 247.33 -461.56 242.26 -461 237.19 C-460.88 236.05 -460.76 234.92 -460.63 233.75 C-459.71 230.09 -458.22 227.69 -455.88 224.75 C-454.88 224.42 -453.89 224.09 -452.88 223.75 C-452.75 222.84 -452.75 222.84 -452.61 221.91 C-451.5 215.29 -449.55 209.42 -445.88 203.75 C-444.39 202.76 -444.39 202.76 -442.88 201.75 C-441.87 199.73 -441.87 199.73 -441.06 197.44 C-439.45 193.58 -437.94 191.84 -434.5 189.39 C-432.16 187.03 -431.06 184.3 -429.62 181.31 C-426.2 174.58 -422.56 171.91 -415.88 168.75 C-412.62 166.97 -411.1 166.1 -409.06 162.94 C-406.26 158.86 -402.89 156.55 -398.88 153.75 C-398.23 153.23 -397.58 152.71 -396.91 152.18 C-394.74 150.65 -392.84 149.9 -390.31 149.12 C-389.55 148.89 -388.78 148.65 -388 148.4 C-386.95 148.08 -386.95 148.08 -385.88 147.75 C-384.88 147.42 -383.89 147.09 -382.88 146.75 C-382.61 146.13 -382.34 145.51 -382.06 144.88 C-380.29 141.7 -378.22 141.12 -374.88 139.75 C-371.87 139.18 -368.86 138.93 -365.81 138.69 C-358.6 138.2 -358.6 138.2 -351.88 135.75 C-351.24 134.9 -350.6 134.06 -349.94 133.19 C-345.59 129.73 -341.68 130.05 -336.25 129.89 C-333.03 129.85 -333.03 129.85 -330.54 129.25 C-317.99 126.9 -302.4 127.74 -291.32 134.2 C-285.49 136.83 -279.22 137.47 -272.92 138.37 C-263.28 139.79 -263.28 139.79 -258.88 142.75 C-258.18 144.07 -257.51 145.4 -256.88 146.75 C-254.88 147.77 -254.88 147.77 -252.56 148.31 C-248.95 149.4 -245.91 150.43 -242.88 152.75 C-242.48 153.55 -242.09 154.36 -241.69 155.19 C-239.18 158.73 -236.3 159.34 -232.31 160.79 C-228.19 162.42 -225.55 165.06 -222.5 168.19 C-220.44 170.2 -218.8 171.49 -216.44 173 C-212.68 175.58 -210.67 178.78 -208.29 182.61 C-206.48 185.35 -204.22 187.47 -201.88 189.75 C-199.83 192.66 -198.59 195.48 -197.44 198.81 C-196.49 201.46 -195.99 202.63 -193.94 204.62 C-189.86 208.83 -187.9 214.97 -187.38 220.75 C-187.21 221.74 -187.04 222.73 -186.88 223.75 C-185.01 224.93 -185.01 224.93 -182.88 225.75 C-180.16 229.48 -179.34 232.57 -178.81 237.12 C-178.74 237.78 -178.66 238.43 -178.58 239.1 C-178.03 244.22 -177.69 249.35 -177.38 254.48 C-177.34 255.17 -177.29 255.86 -177.25 256.56 C-177.04 260.04 -176.84 263.53 -176.66 267.01 C-176.55 268.96 -176.55 268.96 -176.44 270.95 C-176.38 272.11 -176.32 273.28 -176.25 274.48 C-176.02 277.7 -176.02 277.7 -174.87 280.35 C-173.57 284.78 -173.61 288.83 -173.65 293.43 C-173.65 294.38 -173.65 295.34 -173.65 296.33 C-173.65 299.48 -173.66 302.62 -173.68 305.77 C-173.68 307.96 -173.69 310.15 -173.69 312.34 C-173.7 318.09 -173.72 323.84 -173.74 329.59 C-173.76 335.46 -173.77 341.34 -173.78 347.21 C-173.8 358.72 -173.83 370.24 -173.88 381.75 C-167.06 384.29 -160.36 384.03 -153.16 384.01 C-151.77 384.01 -150.38 384.02 -148.99 384.02 C-145.23 384.03 -141.48 384.03 -137.72 384.02 C-133.78 384.01 -129.84 384.02 -125.9 384.02 C-119.29 384.03 -112.68 384.02 -106.06 384.01 C-98.43 384 -90.79 384 -83.15 384.01 C-76.59 384.02 -70.02 384.02 -63.45 384.02 C-59.53 384.02 -55.62 384.02 -51.7 384.02 C-48.02 384.03 -44.33 384.02 -40.65 384.01 C-38.66 384.01 -36.67 384.01 -34.68 384.02 C-33.49 384.02 -32.29 384.01 -31.06 384 C-29.51 384 -29.51 384 -27.93 384 C-24.34 383.71 -21.31 382.84 -17.88 381.75 C-17.88 380.96 -17.88 380.16 -17.88 379.34 C-17.95 332.33 -18 285.32 -18.03 238.3 C-18.03 232.66 -18.04 227.02 -18.04 221.38 C-18.04 220.26 -18.04 219.13 -18.04 217.98 C-18.06 199.78 -18.08 181.58 -18.11 163.38 C-18.13 144.71 -18.15 126.04 -18.16 107.38 C-18.16 95.85 -18.17 84.33 -18.2 72.81 C-18.21 64.91 -18.22 57.01 -18.22 49.12 C-18.21 44.56 -18.22 40 -18.23 35.44 C-18.25 31.27 -18.25 27.1 -18.24 22.92 C-18.24 21.41 -18.24 19.9 -18.25 18.39 C-18.26 16.34 -18.25 14.29 -18.24 12.24 C-18.25 11.1 -18.25 9.96 -18.25 8.78 C-17.83 5.38 -16.88 3.5 -14.88 0.75 C-10.57 -2.6 -4.73 -2.06 0 0 Z " fill="#000000" transform="translate(959.875,594.25)"/>
<path d="M0 0 C1.45 -0.01 1.45 -0.01 2.92 -0.01 C6.11 -0.02 9.29 -0.02 12.48 -0.02 C14.7 -0.03 16.93 -0.03 19.15 -0.03 C23.82 -0.04 28.48 -0.04 33.14 -0.04 C39.09 -0.04 45.04 -0.05 50.99 -0.07 C55.59 -0.08 60.19 -0.08 64.78 -0.08 C66.97 -0.08 69.17 -0.09 71.36 -0.1 C102.32 -0.2 102.32 -0.2 110.25 6.15 C112 7.05 113.75 7.95 115.51 8.83 C121.76 12.07 125.83 15.02 128.52 21.75 C129.15 23.81 129.71 25.88 130.25 27.96 C131.46 31.81 133.29 33.48 136.25 36.15 C139.78 43.2 138.46 53.68 138.57 61.37 C138.59 62.6 138.61 63.83 138.63 65.1 C138.7 68.99 138.76 72.88 138.82 76.77 C138.86 79.42 138.9 82.07 138.95 84.73 C139.05 91.2 139.16 97.67 139.25 104.15 C140.57 104.15 141.89 104.15 143.25 104.15 C143.56 103.26 143.87 102.37 144.19 101.46 C146.68 97.45 148.96 96.48 153.07 94.42 C155.62 92.93 157.02 91.04 158.75 88.68 C161.51 85.87 165.2 84.43 168.68 82.66 C171.1 81.23 172.29 80.21 173.88 77.96 C176.81 74.49 179.07 74.11 183.31 72.92 C185.53 72.28 185.53 72.28 186.57 69.65 C186.91 68.41 186.91 68.41 187.25 67.15 C189.4 65.15 191.02 64.22 193.82 63.33 C197.19 61.69 197.69 59.48 199.25 56.15 C201.61 53.87 203.19 53.16 206.38 52.27 C207.33 51.9 208.28 51.53 209.25 51.15 C209.53 50.36 209.81 49.57 210.1 48.76 C211.62 45.32 213.22 44.74 216.57 43.15 C220.91 40.94 223.97 38.81 227.25 35.15 C229.87 32.86 232.09 31.22 235.25 29.77 C238.46 28.27 238.46 28.27 240.75 25.15 C243.25 22.15 243.25 22.15 246.32 20.65 C249.97 18.78 251.05 16.55 253.25 13.15 C256.93 10.44 259.73 9.74 264.25 9.52 C269.81 9.23 269.81 9.23 275.25 8.15 C276.42 6.23 276.42 6.23 277.25 4.15 C281.51 1.31 285.25 1.63 290.25 2.15 C293.34 3.37 295.77 4.83 298.53 6.64 C301.52 8.29 304.26 9.06 307.57 9.9 C313.12 11.52 316.48 13.51 320.55 17.55 C322.34 19.39 322.34 19.39 325.5 20.71 C329.03 22.55 330.35 24.7 332.25 28.15 C332.25 28.81 332.25 29.47 332.25 30.15 C333.14 30.23 334.03 30.31 334.94 30.4 C339.71 31.48 342.17 33.93 345.38 37.52 C348.85 40.69 352.52 42.49 356.73 44.52 C359.64 46.4 360.53 48.19 362.25 51.15 C364.35 52.61 364.35 52.61 366.69 53.65 C370.62 55.66 372.5 57.69 375.25 61.15 C377.28 62.25 379.31 63.18 381.45 64.06 C383.74 65.44 384.34 66.65 385.25 69.15 C385.25 70.14 385.25 71.13 385.25 72.15 C386.99 72.45 386.99 72.45 388.75 72.77 C395.33 74.42 399.84 78.9 404.82 83.27 C407.12 85.29 409.37 86.87 412.07 88.33 C415.25 90.15 415.25 90.15 417.25 93.15 C419.08 94.11 419.08 94.11 421.13 94.9 C424.34 96.39 425.8 97.53 427.38 100.71 C429.57 104.73 431.18 105.32 435.25 107.15 C437.41 109.52 438.23 111.08 439.25 114.15 C441.38 115.21 441.38 115.21 443.94 116.02 C449.91 118.26 453.34 121.14 457.75 125.77 C460.14 128.27 460.14 128.27 463.25 129.65 C466.64 131.34 468.59 133.48 471.25 136.15 C472.77 136.89 472.77 136.89 474.32 137.65 C477.66 139.35 479.22 141.01 481.25 144.15 C481.25 145.14 481.25 146.13 481.25 147.15 C482.31 147.31 483.36 147.48 484.44 147.65 C486.95 148.33 487.98 148.76 489.48 150.92 C489.84 151.61 490.2 152.31 490.57 153.02 C493.09 157.66 496.03 158.64 500.89 160.29 C505.01 161.78 507.6 164.46 510.57 167.58 C513.36 170.25 516.13 171.98 519.48 173.84 C521.25 175.15 521.25 175.15 522.28 177.24 C522.6 177.87 522.92 178.5 523.25 179.15 C524.37 179.45 525.48 179.76 526.63 180.08 C530.83 181.31 531.95 182.51 534.25 186.15 C534.58 187.14 534.91 188.13 535.25 189.15 C537.19 190.17 537.19 190.17 539.5 190.96 C543.41 192.57 545.25 194.1 547.75 197.58 C549.79 199.71 552.06 200.76 554.69 202.08 C559.2 204.38 561.77 206.56 564.79 210.55 C566.96 212.92 569.54 213.9 572.44 215.18 C575.08 216.59 576.45 218.8 578.25 221.15 C580.23 222.19 582.23 223.2 584.25 224.15 C587.32 226.47 587.6 228.44 588.25 232.15 C588.91 232.3 589.56 232.46 590.23 232.63 C597.63 234.6 601.41 237.08 606.63 242.71 C609.41 245.29 611.93 246.53 615.34 248.11 C618.15 249.63 620.07 251.84 622.25 254.15 C623.12 254.66 623.99 255.18 624.88 255.71 C627.44 257.26 628.73 258.58 630.25 261.15 C630.25 262.14 630.25 263.13 630.25 264.15 C631.86 264.49 631.86 264.49 633.5 264.83 C637.67 266.29 638.93 267.48 641.25 271.15 C641.58 272.14 641.91 273.13 642.25 274.15 C644.41 275.25 644.41 275.25 647 276.08 C652.26 278.06 655.64 280.44 659.5 284.52 C662.56 287.43 665.78 289.52 669.36 291.72 C671.25 293.15 671.25 293.15 672.25 296.15 C673.35 296.43 674.44 296.72 675.57 297.02 C679.8 298.31 680.96 299.44 683.25 303.15 C683.44 304.23 683.44 304.23 683.63 305.33 C683.83 305.93 684.04 306.53 684.25 307.15 C686.24 307.85 688.24 308.51 690.25 309.15 C693.01 311.31 694.08 312.5 695 315.9 C695.13 317.01 695.13 317.01 695.25 318.15 C696.24 318.19 697.23 318.23 698.25 318.27 C703.13 318.95 706.79 321.75 710.25 325.15 C710.58 326.14 710.91 327.13 711.25 328.15 C712.9 328.87 714.57 329.53 716.25 330.15 C717.82 331.08 719.37 332.06 720.88 333.08 C721.63 333.59 722.39 334.09 723.17 334.61 C725.25 336.15 725.25 336.15 726.81 337.72 C728.42 339.45 728.42 339.45 731.75 340.96 C734.67 342.54 735.18 342.98 736.69 346.15 C738.65 349.9 740.52 350.61 744.32 352.19 C746.44 353.24 747.74 354.32 749.25 356.15 C749.25 356.81 749.25 357.47 749.25 358.15 C749.91 358.15 750.57 358.15 751.25 358.15 C751.25 358.81 751.25 359.47 751.25 360.15 C752.24 360.24 752.24 360.24 753.25 360.33 C760.06 362.17 764.41 366.09 768.68 371.51 C770.95 373.86 773.51 374.94 776.52 376.13 C778.25 377.15 778.25 377.15 779.25 379.15 C780.52 381.67 781.53 381.96 784.13 382.96 C787.36 384.42 788.8 385.52 790.38 388.71 C792.57 392.73 794.18 393.32 798.25 395.15 C800.45 397.42 801.18 398.62 801.63 401.77 C801.94 402.95 801.94 402.95 802.25 404.15 C803.04 404.45 803.82 404.76 804.63 405.08 C807.25 406.15 807.25 406.15 808.94 408.77 C814.33 422.62 814.08 440.13 809.25 454.15 C805.41 460.87 798.7 465.12 792.25 469.15 C790.69 470.22 790.69 470.22 789.1 471.32 C784.49 473.92 779.92 473.7 774.75 473.58 C773.39 473.59 773.39 473.59 771.99 473.6 C766.36 473.55 762.16 472.99 757.25 470.15 C756.12 468.05 756.12 468.05 755.25 466.15 C753.02 465.16 753.02 465.16 750.44 464.65 C746.21 463.51 743.37 462.36 740.25 459.15 C739.98 458.48 739.71 457.82 739.43 457.14 C737.84 454.45 736.37 454.16 733.44 453.21 C728.93 451.55 726.51 449.75 723.25 446.15 C721.92 445.1 720.56 444.08 719.19 443.08 C715.52 440.39 712.45 437.5 709.44 434.08 C707.24 431.91 707.24 431.91 703.75 430.77 C700.25 429.15 700.25 429.15 698.32 426.15 C696.14 422.97 695.8 422.75 692.38 421.71 C689.04 420.67 687.55 419.63 685.44 416.83 C682.93 413.55 680.44 412 676.75 410.15 C672.27 407.88 669.66 405.7 666.65 401.74 C665.11 399.98 663.71 399.14 661.63 398.08 C658.25 396.15 658.25 396.15 656.32 393.08 C653.81 389.52 652.09 389.18 648.09 387.93 C645.28 386.73 644.38 384.9 643.25 382.15 C643.25 381.49 643.25 380.83 643.25 380.15 C641.64 379.77 641.64 379.77 640 379.4 C636.25 378.14 634.65 377.22 632.25 374.15 C632.25 373.49 632.25 372.83 632.25 372.15 C631.59 372.15 630.93 372.15 630.25 372.15 C630.25 371.49 630.25 370.83 630.25 370.15 C629.43 369.92 628.6 369.69 627.75 369.46 C622.2 367.37 617.29 364.73 613.57 360.02 C611.26 357.16 609.38 355.96 606.25 354.15 C603.25 350.73 603.25 350.73 603.25 348.15 C602.65 347.99 602.05 347.83 601.43 347.66 C596.23 346.15 593.21 344.95 590.25 340.15 C589.92 339.49 589.59 338.83 589.25 338.15 C588.03 337.51 586.77 336.94 585.5 336.4 C581.95 334.7 580.28 332.99 577.94 329.79 C574.66 326.6 570.3 324.9 566.21 322.95 C562.96 320.97 562.06 319.41 560.25 316.15 C558.35 314.7 558.35 314.7 556.25 313.65 C552.41 311.43 552.41 311.43 550.88 308.58 C548.93 305.66 547.82 305.43 544.57 304.27 C539.86 302.57 536.86 300.41 533.25 297 C531.17 295.07 529.01 293.36 526.75 291.65 C523.07 288.82 519.57 285.86 516.1 282.77 C514.43 281.3 512.73 279.87 511 278.46 C508.25 276.15 508.25 276.15 506.32 274.02 C504.22 271.89 504.22 271.89 500.75 270.77 C496.6 268.84 495.75 266.88 493.25 263.15 C491.55 262.41 489.84 261.67 488.09 261.04 C485.88 259.96 484.66 258.65 483 256.83 C480.17 253.78 477.41 252.02 473.69 250.15 C469.27 247.88 466.58 245.68 463.59 241.75 C461.54 239.29 458.96 237.8 456.25 236.15 C455.59 235.49 454.93 234.83 454.25 234.15 C454.25 233.16 454.25 232.17 454.25 231.15 C453.65 230.99 453.05 230.83 452.43 230.66 C447.16 229.13 444.34 227.9 441.25 223.15 C439.36 220.91 438.11 220.08 435.38 218.83 C432.25 217.15 432.25 217.15 430.19 214.4 C426.94 210.07 421.99 208.23 417.21 205.95 C413.95 203.96 413.08 202.41 411.25 199.15 C409.12 197.48 409.12 197.48 406.75 196.15 C402.42 193.44 402.42 193.44 400.75 190.52 C398.64 187.18 395.94 186.62 392.35 185.18 C389.48 183.76 388.41 182.09 387.25 179.15 C387.25 178.49 387.25 177.83 387.25 177.15 C386.37 177.08 385.48 177.02 384.57 176.96 C380.44 175.95 379.08 174.26 376.25 171.15 C373.28 168.51 370.33 166.64 366.82 164.83 C362.83 162.7 360.53 160.38 357.79 156.84 C355.55 154.37 352.86 152.98 349.99 151.33 C348.25 150.15 348.25 150.15 346.82 147.52 C344.96 144.69 344.28 144.69 341.13 143.83 C336.13 142.4 333.25 139.82 329.53 136.27 C326.54 133.48 323.3 131.1 320 128.69 C318.25 127.15 318.25 127.15 317.25 124.15 C315.49 123.14 315.49 123.14 313.25 122.15 C310.08 120.23 307.68 118.73 305.5 115.71 C302.61 112.41 299.44 111.22 295.5 109.41 C293.25 108.15 293.25 108.15 291.82 105.4 C290.45 102.87 290.45 102.87 287.64 102.61 C284.84 102.36 282.07 102.2 279.25 102.15 C278.78 103.2 278.3 104.25 277.82 105.33 C275.49 109.46 272.55 110.85 268.41 112.9 C265.86 114.37 264.47 116.27 262.75 118.62 C260.73 120.68 258.52 121.68 255.94 122.96 C250.87 125.55 247.88 128.48 244.28 132.83 C239.75 138 234.44 142.68 227.82 144.77 C224.04 145.77 224.04 145.77 222.82 149.02 C220.77 153.11 218.41 153.88 214.44 155.87 C211.89 157.36 210.49 159.25 208.76 161.61 C206.69 163.72 204.38 164.76 201.75 166.08 C197.32 168.35 195.04 170.21 192.49 174.41 C190.53 177.16 187.91 178.87 185.17 180.8 C183.08 182.22 183.08 182.22 180.63 184.4 C178.25 186.15 178.25 186.15 175.32 186.9 C171.35 188.51 170.15 190.79 167.77 194.24 C165.67 196.88 163.39 198 160.25 199.15 C159.59 199.15 158.93 199.15 158.25 199.15 C158.06 199.89 157.87 200.63 157.68 201.4 C155.77 205.08 153.02 206.3 149.44 208.08 C145.48 210.06 142.32 211.79 139.53 215.3 C136.79 218.73 134.24 219.45 130.25 221.15 C129.57 222.32 129.57 222.32 128.88 223.52 C127.03 226.51 125.84 227.04 122.75 228.58 C118.93 230.5 118.93 230.5 116.75 234.21 C114.47 238.68 110.77 239.41 106.25 241.15 C104.55 242.01 104.55 242.01 102.82 242.9 C100.25 244.15 100.25 244.15 98.25 244.15 C97.91 245.23 97.91 245.23 97.57 246.33 C94.72 252.43 88.46 257.65 82.41 260.47 C80.7 261.07 78.98 261.65 77.26 262.23 C74.19 263.63 73.65 266.17 72.25 269.15 C70.06 270.57 67.78 271.69 65.44 272.87 C62.89 274.36 61.49 276.25 59.76 278.61 C57.69 280.72 55.38 281.76 52.75 283.08 C48.32 285.35 46.04 287.21 43.49 291.41 C41.53 294.16 38.91 295.87 36.16 297.8 C34.09 299.22 34.09 299.22 31.69 301.33 C29.25 303.15 29.25 303.15 25.69 304.52 C21.59 306.46 20.69 308.41 18.25 312.15 C15.54 314.16 12.73 316.15 9.25 316.15 C8.91 317.29 8.91 317.29 8.55 318.45 C6.98 321.72 5.59 322.54 2.44 324.27 C1.59 324.75 0.74 325.22 -0.14 325.72 C-1.43 326.42 -1.43 326.42 -2.75 327.15 C-6.76 329.37 -6.76 329.37 -9.56 332.96 C-12.36 337.04 -15.73 339.35 -19.75 342.15 C-20.42 342.67 -21.09 343.2 -21.78 343.74 C-23.75 345.15 -23.75 345.15 -27.25 346.46 C-31.35 348.44 -32.43 350.31 -34.75 354.15 C-36.82 355.95 -38.84 357.19 -41.25 358.52 C-43.86 360.01 -43.86 360.01 -45.5 362.52 C-48.61 366.15 -52.38 368.25 -56.75 370.15 C-57.74 370.15 -58.73 370.15 -59.75 370.15 C-59.75 370.81 -59.75 371.47 -59.75 372.15 C-60.41 372.15 -61.07 372.15 -61.75 372.15 C-61.99 372.74 -62.24 373.34 -62.5 373.96 C-64.4 377.29 -66.61 378.78 -70.25 379.96 C-73.01 381 -73.01 381 -74.56 384.02 C-76.77 387.18 -77.47 387.7 -80.81 389.15 C-84.31 390.67 -84.31 390.67 -86.18 394.15 C-88.52 398.63 -92.17 399.43 -96.75 401.15 C-101.69 403.14 -103.64 405.13 -106.47 409.45 C-108.43 412.06 -110.99 413.46 -113.75 415.15 C-114.72 415.99 -115.69 416.84 -116.68 417.71 C-119.75 420.15 -119.75 420.15 -123.31 421.52 C-127.24 423.38 -128.13 424.91 -130.36 428.45 C-132.42 430.97 -134.88 431.9 -137.88 433.03 C-139.96 434.06 -139.96 434.06 -141.05 436.52 C-143.61 440.48 -147.47 441.98 -151.56 444.02 C-156.07 446.39 -158.12 448.85 -160.75 453.15 C-162.53 454.68 -162.53 454.68 -164.25 455.77 C-166.35 457.12 -167.9 458.31 -169.61 460.15 C-172.09 462.47 -174.18 463.31 -177.37 464.4 C-178.33 464.73 -179.29 465.07 -180.29 465.41 C-182.75 466.15 -182.75 466.15 -184.75 466.15 C-184.93 466.74 -185.12 467.34 -185.31 467.96 C-187.39 471.12 -190.24 472.08 -193.75 473.15 C-196.7 473.57 -199.58 473.62 -202.56 473.58 C-203.35 473.58 -204.15 473.57 -204.96 473.56 C-211.22 473.39 -216.27 472.29 -221.75 469.15 C-222.46 468.74 -223.17 468.33 -223.91 467.91 C-225.9 466.71 -227.82 465.44 -229.75 464.15 C-230.84 463.46 -231.93 462.78 -233.06 462.08 C-238.14 458.42 -239.42 454.69 -240.43 448.65 C-240.56 447.91 -240.68 447.17 -240.81 446.41 C-242.62 434.62 -244.25 419.16 -238.75 408.15 C-236.54 405.67 -234.52 403.99 -231.75 402.15 C-231.27 401.18 -230.8 400.21 -230.31 399.21 C-228.71 396.07 -227.78 394.84 -224.75 393.15 C-222 392.46 -222 392.46 -219.75 392.15 C-219.64 391.55 -219.54 390.95 -219.43 390.33 C-218.61 387.72 -217.89 386.84 -215.75 385.15 C-214.82 384.75 -213.89 384.36 -212.93 383.96 C-209.77 382.16 -208.86 381.16 -206.87 378.27 C-204.22 374.46 -201.56 372.55 -197.55 370.29 C-195.51 369.14 -195.51 369.14 -193.75 366.58 C-191.02 363.26 -187.76 361.62 -183.75 360.15 C-182.76 360.15 -181.77 360.15 -180.75 360.15 C-180.75 359.49 -180.75 358.83 -180.75 358.15 C-180.09 358.15 -179.43 358.15 -178.75 358.15 C-178.52 357.38 -178.29 356.62 -178.06 355.83 C-176.45 352.53 -175.02 351.71 -171.75 350.15 C-171.07 350.04 -170.39 349.94 -169.68 349.83 C-167.41 349.25 -167.41 349.25 -166 346.33 C-163.74 343.14 -163.12 342.64 -159.75 341.21 C-156.54 339.8 -155.27 338.82 -153.81 335.65 C-151.84 331.5 -148.91 330.42 -144.77 328.77 C-142.75 328.15 -142.75 328.15 -140.75 328.15 C-140.51 327.56 -140.26 326.97 -140.02 326.36 C-138.5 323.72 -136.89 322.49 -134.43 320.71 C-130.91 318.07 -127.82 315.31 -124.75 312.15 C-121.87 309.49 -120.48 308.25 -116.56 307.71 C-115.63 307.52 -114.7 307.34 -113.75 307.15 C-112.56 304.77 -112.56 304.77 -111.75 302.15 C-109.53 300.09 -107.53 299.05 -104.75 297.83 C-101.55 296.34 -101.55 296.34 -99.87 293.21 C-97.1 289.21 -94.13 288 -89.75 286.15 C-84.5 283.93 -82.85 281.85 -79.75 277.15 C-78.05 275.76 -76.29 274.57 -74.47 273.37 C-72.5 272.06 -72.5 272.06 -70.31 269.52 C-67.77 267.16 -66.85 266.77 -63.68 265.9 C-60.93 265.01 -59.98 264.52 -58.41 262.03 C-57.74 260.44 -57.11 258.83 -56.54 257.2 C-55.75 255.15 -55.75 255.15 -53.75 253.15 C-53.55 250.46 -53.47 247.89 -53.49 245.2 C-53.48 244.37 -53.48 243.54 -53.48 242.69 C-53.47 239.89 -53.47 237.09 -53.48 234.29 C-53.47 232.29 -53.47 230.29 -53.46 228.29 C-53.45 223.97 -53.44 219.65 -53.44 215.34 C-53.44 208.5 -53.42 201.67 -53.4 194.83 C-53.35 177.85 -53.32 160.87 -53.3 143.88 C-53.28 130.7 -53.26 117.52 -53.22 104.34 C-53.19 97.56 -53.19 90.77 -53.19 83.99 C-53.19 79.75 -53.17 75.51 -53.16 71.28 C-53.15 69.32 -53.15 67.37 -53.15 65.41 C-53.18 55.19 -52.87 45.98 -49.75 36.15 C-49.48 34.94 -49.21 33.73 -48.94 32.49 C-48.73 31.55 -48.52 30.61 -48.31 29.65 C-48 28.21 -48 28.21 -47.69 26.74 C-46.57 23.67 -45.3 22.17 -42.75 20.15 C-41.76 20.15 -40.77 20.15 -39.75 20.15 C-39.48 19.22 -39.21 18.29 -38.93 17.33 C-37.77 14.21 -37.28 13.13 -34.75 11.15 C-31.93 10.28 -29.12 9.69 -26.24 9.09 C-23.61 8.39 -23.61 8.39 -22.58 6.15 C-22.3 5.49 -22.03 4.83 -21.75 4.15 C-14.84 -0.09 -7.84 -0 0 0 Z M32.25 92.15 C32.06 94.93 31.99 97.62 32.01 100.42 C32.01 101.27 32.01 102.13 32 103.01 C32 105.85 32.01 108.69 32.02 111.53 C32.02 113.5 32.02 115.47 32.02 117.45 C32.03 121.59 32.03 125.74 32.05 129.88 C32.06 135.18 32.07 140.48 32.07 145.78 C32.07 149.86 32.07 153.94 32.08 158.02 C32.08 159.97 32.09 161.93 32.09 163.88 C32.09 166.62 32.1 169.36 32.11 172.1 C32.11 172.9 32.11 173.7 32.11 174.52 C32.13 179.48 32.55 184.24 33.25 189.15 C34.24 189.15 35.23 189.15 36.25 189.15 C36.67 188.38 37.08 187.62 37.5 186.83 C39.25 184.15 39.25 184.15 42.82 182.65 C46.31 181.53 46.31 181.53 47.45 179.07 C48.48 175.32 48.53 171.75 48.51 167.9 C48.52 167.08 48.52 166.26 48.52 165.42 C48.53 162.73 48.53 160.04 48.52 157.35 C48.52 155.48 48.52 153.61 48.53 151.74 C48.53 147.82 48.52 143.91 48.51 139.99 C48.5 134.96 48.51 129.93 48.52 124.91 C48.53 121.05 48.53 117.18 48.52 113.32 C48.52 111.47 48.52 109.61 48.53 107.76 C48.53 105.17 48.52 102.59 48.51 100 C48.52 99.23 48.52 98.46 48.52 97.67 C48.64 93.45 48.64 93.45 46.25 90.15 C43.42 89.83 43.42 89.83 40.25 89.9 C39.18 89.89 38.11 89.88 37 89.88 C34.11 89.86 34.11 89.86 32.25 92.15 Z " fill="#000000" transform="translate(354.746337890625,210.854736328125)"/>
</svg>
